<svg xmlns="http://www.w3.org/2000/svg" viewBox="0 0 1080 470"><defs><style>.cls-1{fill:#1e1919;}</style></defs><g id="Layer_2" data-name="Layer 2"><g id="Layer_1-2" data-name="Layer 1"><path class="cls-1" d="M663.87,365.25c-28.49,0-49.51-10.92-62.87-35.86a6,6,0,0,0-11.18,2.84v82.83a8,8,0,0,1-8,7.94H533.55a7.94,7.94,0,0,1-7.94-7.94V142.19a7.93,7.93,0,0,1,7.94-7.94h48.32a7.94,7.94,0,0,1,8,7.94v18.95c0,6.12,8.2,8.29,11.14,2.92,13.74-25.16,35.64-36,64.32-36,53.43,0,81.08,44,81.08,116.93C746.36,320.75,717.77,365.25,663.87,365.25Zm19.22-119.76c0-37.4-14.07-59.17-46.4-59.17-29.53,0-46.87,20.35-46.87,57.28v4.26c0,36.45,17.34,59.17,46.87,59.17C668.56,307,683.09,284.31,683.09,245.49Z"/><path class="cls-1" d="M766.87,73.75h0a36.57,36.57,0,0,1,36.56-36.29h3.42a36.56,36.56,0,0,1,36.56,36.83h0a36.56,36.56,0,0,1-36.56,36.29h-3.42A36.57,36.57,0,0,1,766.87,73.75ZM773,350.68V142.19a7.93,7.93,0,0,1,7.94-7.94h48.33a7.94,7.94,0,0,1,7.94,7.94V350.68a7.94,7.94,0,0,1-7.94,7.94H781A7.93,7.93,0,0,1,773,350.68Z"/><path class="cls-1" d="M1080,233.18c0-61.06-33.28-105.09-101.71-105.09-72.17,0-114.83,45.45-114.83,123.08,0,74.79,46.87,113.61,113.9,113.61,56.83,0,85.93-27.18,98.34-63.87a8,8,0,0,0-5.35-10.28L1030,279.24a8,8,0,0,0-9.54,4.73c-5.77,14.37-16.57,25.42-42.2,25.42-29.29,0-46-13.59-50.73-44.21h144.5a7.94,7.94,0,0,0,7.94-7.94V242.07a2.48,2.48,0,0,0,0-.27C1080,239,1080,236.21,1080,233.18ZM976.42,181.59c28.59,0,43.12,15.14,45,45H927.68C931.89,194.84,948.3,181.59,976.42,181.59Z"/><path class="cls-1" d="M394.42,102.12C394,45.31,346.61,0,289.8,0H104.69C48.31,0,1.09,44.6,0,101A103.07,103.07,0,0,0,103,205.92h82.7a6,6,0,0,1,2.4,11.42L61.31,272.91A103.09,103.09,0,0,0,0,367.83C.43,424.65,47.79,470,104.62,470H148c57.23,0,104.88-45.9,104.79-103.13a103.11,103.11,0,0,0-64.48-95.31,5.94,5.94,0,0,1-.11-10.94l145-63.58A103.08,103.08,0,0,0,394.42,102.12Z"/></g></g></svg>