<svg xmlns="http://www.w3.org/2000/svg" viewBox="0 0 1635.31 470"><defs><style>.cls-1{fill:#4b78e6;}</style></defs><g id="Layer_2" data-name="Layer 2"><g id="Layer_1-2" data-name="Layer 1"><path class="cls-1" d="M1322.19,73.91h0a36.56,36.56,0,0,1,36.56-36.29h3.41a36.56,36.56,0,0,1,36.56,36.83h0a36.56,36.56,0,0,1-36.56,36.29h-3.41A36.56,36.56,0,0,1,1322.19,73.91Zm6.16,276.93V142.35a7.94,7.94,0,0,1,8-7.94h48.32a7.93,7.93,0,0,1,7.94,7.94V350.84a7.94,7.94,0,0,1-7.94,7.94H1336.3A8,8,0,0,1,1328.35,350.84Z"/><path class="cls-1" d="M1635.31,233.34c0-61.06-33.28-105.09-101.71-105.09-72.17,0-114.82,45.45-114.82,123.08,0,74.79,46.86,113.6,113.89,113.6,56.83,0,85.93-27.17,98.33-63.86a8,8,0,0,0-5.34-10.28l-40.32-11.39a8,8,0,0,0-9.54,4.73c-5.77,14.37-16.57,25.42-42.2,25.42-29.32,0-46.06-13.62-50.74-44.29a7.17,7.17,0,0,0,.81.08h143.7a8,8,0,0,0,7.94-7.94V242.23c0-.09,0-.18,0-.28C1635.31,239.17,1635.31,236.36,1635.31,233.34Zm-103.58-51.6c28.59,0,43.12,15.15,45,45H1483C1487.21,195,1503.61,181.74,1531.73,181.74Z"/><path class="cls-1" d="M581.91,358.75H533.56a7.93,7.93,0,0,1-7.94-7.94V76.39a7.93,7.93,0,0,1,7.94-7.94h48.35a7.93,7.93,0,0,1,7.94,7.94v84.66a6,6,0,0,0,11.22,2.77c13.45-25.56,34.68-35.33,60.42-35.69,38.66-.55,70,31.45,70,70.12V350.81a7.94,7.94,0,0,1-7.94,7.94H675.63a7.94,7.94,0,0,1-7.94-7.94V227.1c0-23.21-10.32-40.73-37-40.73-25.79,0-40.8,15.15-40.8,40.73V350.81A7.93,7.93,0,0,1,581.91,358.75Z"/><path class="cls-1" d="M1052.84,306.12a7.94,7.94,0,0,0-9.77-6.78c-6.47,1.55-13.73,3.05-20.35,3.05-19.23,0-25.79-8.52-25.79-26.52V188.26h50.67a7.94,7.94,0,0,0,7.94-7.94v-38.1a8,8,0,0,0-7.94-7.95H996.93V85.86A7.94,7.94,0,0,0,989,77.92H941.1a7.93,7.93,0,0,0-7.94,7.94v48.41H842.67V85.86a7.94,7.94,0,0,0-7.94-7.94H786.84a7.93,7.93,0,0,0-7.94,7.94v48.41H761.05a7.94,7.94,0,0,0-7.94,7.95v38.1a7.93,7.93,0,0,0,7.94,7.94H778.9v99.93c0,42.62,21.57,77.19,73.15,77.19,21.16,0,32.43-2.5,46.08-6.56a8,8,0,0,0,5.65-8.56l-5.2-44.14a7.94,7.94,0,0,0-9.77-6.78c-6.47,1.55-13.73,3.05-20.35,3.05-19.23,0-25.79-8.52-25.79-26.52V188.26h90.49v99.93c0,42.62,21.57,77.19,73.14,77.19,21.17,0,32.44-2.5,46.09-6.56a8,8,0,0,0,5.65-8.56Z"/><path class="cls-1" d="M1219.14,365.27c-28.49,0-49.51-10.92-62.87-35.86a6,6,0,0,0-11.19,2.84v82.83a7.93,7.93,0,0,1-7.94,7.94h-48.32a7.94,7.94,0,0,1-8-7.94V142.21a8,8,0,0,1,8-7.94h48.32a7.94,7.94,0,0,1,7.94,7.94v18.95c0,6.13,8.21,8.3,11.15,2.92,13.74-25.16,35.63-36,64.31-36,53.43,0,81.08,44,81.08,116.92C1301.62,320.78,1273,365.27,1219.14,365.27Zm19.21-119.76c0-37.39-14.06-59.17-46.4-59.17-29.53,0-46.87,20.35-46.87,57.28v4.26c0,36.45,17.34,59.17,46.87,59.17C1223.82,307.05,1238.35,284.33,1238.35,245.51Z"/><path class="cls-1" d="M394.41,102.12C394,45.31,346.61,0,289.8,0H104.69C48.31,0,1.09,44.6,0,101A103.07,103.07,0,0,0,103,205.92h82.7a6,6,0,0,1,2.39,11.42L61.31,272.91A103.09,103.09,0,0,0,0,367.83C.43,424.65,47.79,470,104.62,470H148c57.23,0,104.88-45.9,104.79-103.13a103.1,103.1,0,0,0-64.49-95.31,5.94,5.94,0,0,1-.1-10.94l145-63.58A103.08,103.08,0,0,0,394.41,102.12Z"/></g></g></svg>
